<svg xmlns="http://www.w3.org/2000/svg" xmlns:xlink="http://www.w3.org/1999/xlink" viewBox="0 0 804.43 778.41"><defs><style>.cls-1{fill:#22a2bb;}.cls-2{fill:none;}.cls-3{fill:url(#未命名的渐变_819);}</style><radialGradient id="未命名的渐变_819" cx="100.27" cy="201.65" r="358.02" gradientTransform="translate(-123.82 198.51) rotate(-62.62) scale(1 0.99)" gradientUnits="userSpaceOnUse"><stop offset="0" stop-color="#1aabc7"/><stop offset="0.19" stop-color="#19a3be"/><stop offset="0.5" stop-color="#178ca6"/><stop offset="0.88" stop-color="#13687f"/><stop offset="1" stop-color="#125b71"/></radialGradient></defs><title>资源 1</title><g id="图层_2" data-name="图层 2"><g id="图层_1-2" data-name="图层 1"><path class="cls-1" d="M802.94,369.36a358.76,358.76,0,0,0-54.09-159.73A380.21,380.21,0,0,0,680,128.19c-8.45-7.59-17.24-14.89-26.44-21.73,9.6-11.2,24-20.63,41.43-27.35,4.43-1.71,17.33-2,19.88-6.8,3.52-6.59-8.54-16.52-13.4-20.66a137.28,137.28,0,0,0-25.71-16.72c-23.51-12.22-49.35-20-75.19-25.43a438.34,438.34,0,0,0-51.85-7.7c-66.78-6-126.33,3.33-159,22-106.1,3.05-201.91,44.49-272,110.13a384.74,384.74,0,0,0-48.86,55.52c-5.23,10.75-8,21.49-7.87,31.9a55.1,55.1,0,0,0,1.55,12.3c.17.8.46,1.55.69,2.35,13.39,46.62,87,71.33,181.11,66.27a530.17,530.17,0,0,0,94.37-14l14.54-3.74s156.5,132.6,180.27,85.9a175.54,175.54,0,0,0,18.95-65c-.11,1.33,6.84,7.06,8,8.27,2.68,2.95,5.29,6,7.8,9a214.7,214.7,0,0,1,14.07,19.33c8.72,13.47,15.35,27.53,21.57,42.32,7.88,18.75,9.67,23.73,10.43,46.95a104.75,104.75,0,0,1-2.69,25.25,324.85,324.85,0,0,1-12.31,40.7,293,293,0,0,1-40.89,75.31,304.5,304.5,0,0,1-60.68,60.64,310.16,310.16,0,0,1-62.5,36.4,318.07,318.07,0,0,1-127,26.32q-12,0-24.06-.93c-8.47-.66-38-9.28-44.73-12.08a416.29,416.29,0,0,1-39.24-18.78,403.44,403.44,0,0,1-70.3-48.61,388.78,388.78,0,0,1-57.44-61.52,370.62,370.62,0,0,1-42.24-72.24A357.21,357.21,0,0,1,5.52,401.06q-1-5.49-1.81-11c-.47-3.17-1.84-7.51-1.41-10.68A274.17,274.17,0,0,0,0,407.87v.86A354.8,354.8,0,0,0,28.62,541.21c59.32,139,204.16,237.2,373.48,237.2,222.2,0,402.33-169,402.33-377.44C804.43,390.34,803.86,379.82,802.94,369.36Z"/><path class="cls-2" d="M267,693.29a323.4,323.4,0,0,0,41.21,2.7c4.8,0,9.56-.16,14.31-.37a354.62,354.62,0,0,1-162.19-56.3A410.21,410.21,0,0,0,267,693.29Z"/><path class="cls-3" d="M244.39,302.28a530.17,530.17,0,0,0,94.37-14l14.54-3.74s156.5,132.6,180.27,85.9a175.54,175.54,0,0,0,18.95-65c-.17,2,10.16,10.72,11.79,12.6q6.59,7.62,12.45,15.83a215.57,215.57,0,0,1,19.65,33.57c7.4,15.8,14.35,32.12,16.87,49.51,2.62,18.06-.67,36.3-5.4,53.73-2.52,9.31-5.54,18.49-8.87,27.54A296.55,296.55,0,0,1,529.2,606.15a309.34,309.34,0,0,1-93.93,63.52,317.48,317.48,0,0,1-112.72,26q17,1.59,34.55,1.6c185.7,0,336.23-137,336.23-305.9S542.8,85.42,357.1,85.42c-125.32,0-234.55,62.42-292.38,154.91C81.31,284.15,153.25,307.18,244.39,302.28Z"/></g></g></svg>