<?xml version="1.0" encoding="UTF-8" standalone="no"?>
<!-- Created with Inkscape (http://www.inkscape.org/) -->

<svg
   width="512"
   height="512"
   viewBox="0 0 135.46667 135.46667"
   version="1.1"
   id="svg681"
   xmlns:xlink="http://www.w3.org/1999/xlink"
   xmlns="http://www.w3.org/2000/svg"
   xmlns:svg="http://www.w3.org/2000/svg">
  <defs
     id="defs678">
    <radialGradient
       id="未命名的渐变_819-2"
       cx="112.69"
       cy="220.05"
       r="340.66"
       xlink:href="#%E6%9C%AA%E5%91%BD%E5%90%8D%E7%9A%84%E6%B8%90%E5%8F%98_819"
       gradientTransform="matrix(0.26458333,0,0,0.26458333,65.539891,-23.14302)" />
    <radialGradient
       id="未命名的渐变_819"
       cx="112.69"
       cy="220.05"
       r="340.66"
       gradientTransform="matrix(0.45988985,-0.88797597,0.87909621,0.45529095,-133.35,219.54)"
       gradientUnits="userSpaceOnUse">
      <stop
         offset="0"
         stop-color="#1aabc7"
         id="stop80" />
      <stop
         offset="0.19"
         stop-color="#19a3be"
         id="stop82" />
      <stop
         offset="0.5"
         stop-color="#178ca6"
         id="stop84" />
      <stop
         offset="0.88"
         stop-color="#13687f"
         id="stop86" />
      <stop
         offset="1"
         stop-color="#125b71"
         id="stop88" />
    </radialGradient>
    <radialGradient
       id="radialGradient1426"
       cx="112.69"
       cy="220.05"
       r="340.66"
       xlink:href="#%E6%9C%AA%E5%91%BD%E5%90%8D%E7%9A%84%E6%B8%90%E5%8F%98_819" />
    <radialGradient
       id="radialGradient1438"
       cx="112.69"
       cy="220.05"
       r="340.66"
       gradientTransform="matrix(0.45988985,-0.88797597,0.87909621,0.45529095,-133.35,219.54)"
       gradientUnits="userSpaceOnUse">
      <stop
         offset="0"
         stop-color="#1aabc7"
         id="stop1428" />
      <stop
         offset="0.19"
         stop-color="#19a3be"
         id="stop1430" />
      <stop
         offset="0.5"
         stop-color="#178ca6"
         id="stop1432" />
      <stop
         offset="0.88"
         stop-color="#13687f"
         id="stop1434" />
      <stop
         offset="1"
         stop-color="#125b71"
         id="stop1436" />
    </radialGradient>
    <radialGradient
       id="radialGradient1450"
       cx="112.69"
       cy="220.05"
       r="340.66"
       gradientTransform="matrix(0.45988985,-0.88797597,0.87909621,0.45529095,-133.35,219.54)"
       gradientUnits="userSpaceOnUse">
      <stop
         offset="0"
         stop-color="#1aabc7"
         id="stop1440" />
      <stop
         offset="0.19"
         stop-color="#19a3be"
         id="stop1442" />
      <stop
         offset="0.5"
         stop-color="#178ca6"
         id="stop1444" />
      <stop
         offset="0.88"
         stop-color="#13687f"
         id="stop1446" />
      <stop
         offset="1"
         stop-color="#125b71"
         id="stop1448" />
    </radialGradient>
    <radialGradient
       xlink:href="#未命名的渐变_819"
       id="radialGradient1462"
       gradientUnits="userSpaceOnUse"
       gradientTransform="matrix(0.12167919,-0.23494364,0.2325942,0.1204624,30.257704,34.943604)"
       cx="112.69"
       cy="220.05"
       r="340.66" />
    <radialGradient
       xlink:href="#未命名的渐变_819"
       id="radialGradient1464"
       cx="112.69"
       cy="220.05"
       r="340.66"
       gradientTransform="matrix(0.26458333,0,0,0.26458333,65.539891,-23.14302)" />
  </defs>
  <g
     id="layer1">
    <g
       id="g1722"
       transform="matrix(0.65088819,0,0,0.65088819,-43.811436,13.9078)">
      <path
         class="cls-1"
         d="M 272.25885,77.30075 A 90.360499,90.360499 0 0 0 258.64074,37.084083 95.469603,95.469603 0 0 0 242.6361,17.795959 103.61612,103.61612 0 0 0 221.74989,3.0057505 a 28.839583,28.839583 0 0 1 6.79714,-6.3499999 c 0.98425,-0.6773333 4.12486,-1.5107708 4.46882,-2.8283958 0.47625,-1.8229792 -3.05859,-3.5480625 -4.49792,-4.2756668 a 34.350854,34.350854 0 0 0 -7.2734,-2.584979 c -6.4717,-1.616604 -13.25297,-2.002896 -19.89931,-1.817687 a 110.94244,110.94244 0 0 0 -13.14714,1.150937 106.82287,106.82287 0 0 0 -17.52071,4.0507708 109.17502,109.17502 0 0 0 -17.47573,1.4393333 C 132.52445,-4.7015619 114.02214,4.6752713 99.755807,18.036729 A 96.784582,96.784582 0 0 0 87.455328,32.012021 c -1.322916,2.706687 -2.010833,5.410729 -1.984375,8.030104 a 13.956771,13.956771 0 0 0 0.394229,3.098271 c 0.04233,0.203729 0.113771,0.388937 0.17198,0.592666 0.103187,0.365125 0.230187,0.724959 0.365125,1.082146 0.02381,0.06085 0.04498,0.121709 0.06879,0.185209 0.04498,0.111125 0.08731,0.224895 0.134938,0.33602 0.04762,0.111125 0.07408,0.166688 0.111125,0.248709 0.03704,0.08202 0.07673,0.177271 0.119062,0.264583 l 0.121709,0.248708 c 0.04498,0.08467 0.08467,0.17198 0.129645,0.264584 0.04498,0.0926 0.08996,0.164041 0.134938,0.248708 0.04498,0.08467 0.08996,0.166688 0.137583,0.248708 0.04762,0.08202 0.0926,0.164042 0.142875,0.246063 0.05027,0.08202 0.0979,0.164042 0.148167,0.246062 l 0.153458,0.238125 0.156104,0.240771 0.164042,0.235479 c 0.05821,0.07937 0.111125,0.15875 0.166688,0.238125 0.05556,0.07937 0.119062,0.153459 0.174625,0.232834 l 0.17727,0.232833 0.185209,0.227542 c 0.06085,0.07673 0.124354,0.153458 0.187854,0.227541 0.0635,0.07408 0.127,0.150813 0.1905,0.224896 l 0.195792,0.224896 c 0.06614,0.07408 0.134937,0.148167 0.203729,0.219604 l 0.206375,0.219604 c 0.06879,0.07408 0.140229,0.145521 0.211666,0.216959 l 0.214313,0.214312 0.219604,0.214313 0.227542,0.209021 c 0.07408,0.06879 0.150812,0.140229 0.230187,0.20902 l 0.230188,0.206375 0.240771,0.206375 0.24077,0.198438 0.248709,0.203729 0.264583,0.195792 0.264583,0.195791 0.264584,0.193146 0.264583,0.193146 0.264583,0.185208 c 0.08996,0.06615 0.182563,0.127 0.264584,0.187855 l 0.264583,0.185208 0.283104,0.185208 0.28575,0.179917 0.291042,0.174625 c 0.0979,0.0635 0.198437,0.119062 0.293687,0.177271 l 0.298979,0.174625 c 0.100542,0.05821 0.201084,0.116416 0.304271,0.171979 0.103188,0.05556 0.203729,0.113771 0.306917,0.169333 l 0.312208,0.166688 c 0.105834,0.05556 0.206375,0.111125 0.312209,0.164041 0.105833,0.05292 0.211666,0.111125 0.320145,0.164042 l 0.320146,0.15875 0.328084,0.15875 0.330729,0.15875 0.336021,0.153458 0.33602,0.150813 0.34925,0.150812 0.338667,0.142875 0.365125,0.150813 0.338667,0.137583 0.378351,0.148167 0.33867,0.132291 0.40217,0.145521 0.33073,0.119063 c 0.1561,0.05821 0.3122,0.108479 0.46566,0.161396 0.15346,0.05292 0.3519,0.121708 0.52917,0.179916 0.17727,0.05821 0.33867,0.113771 0.51065,0.166688 l 0.33866,0.105833 c 0.14817,0.04498 0.29104,0.0926 0.43921,0.134938 0.14817,0.04233 0.23548,0.07144 0.3519,0.103187 l 0.4392,0.129646 0.37042,0.103187 0.43127,0.119063 0.38629,0.100542 0.42863,0.111125 0.39687,0.0979 0.43127,0.105834 0.40746,0.09525 0.43657,0.100541 0.41275,0.08731 0.44185,0.0926 c 0.13758,0.03175 0.28046,0.06085 0.42069,0.08731 0.14023,0.02646 0.29633,0.06085 0.44979,0.08731 l 0.42333,0.08202 0.45509,0.08467 c 0.14287,0.02646 0.28839,0.05292 0.43127,0.07408 l 0.45773,0.08202 0.44185,0.07144 0.46302,0.07408 0.4445,0.06615 0.4736,0.06879 0.44715,0.06085 0.47625,0.06615 c 0.15346,0.01588 0.30427,0.03704 0.45508,0.05556 l 0.48419,0.05821 0.46038,0.05292 0.48948,0.05292 0.46037,0.04763 0.49742,0.04762 c 0.1561,0.01588 0.31485,0.03175 0.46831,0.04233 l 0.50535,0.04498 0.46832,0.03704 0.51329,0.03704 0.4736,0.0344 0.52917,0.03175 0.47625,0.0291 0.52917,0.02646 0.46037,0.0026 0.52917,0.02117 0.48418,0.02117 0.52917,0.01588 h 0.48419 l 0.54769,0.01323 h 0.48418 0.56092 0.4789 1.05833 0.59002 0.47096 l 0.61119,-0.01323 h 0.45508 l 0.65352,-0.01852 0.41804,-0.01323 0.72231,-0.02911 0.36248,-0.01588 1.08744,-0.05027 a 133.46112,133.46112 0 0 0 23.75958,-3.532188 l 3.66448,-0.939271 c 0,0 0.23813,0.20373 0.68263,0.574146 l 0.29369,0.240771 0.72495,0.597958 0.66146,0.529167 0.49477,0.396875 c 0.17198,0.140229 0.34925,0.283104 0.52917,0.428625 q 0.69056,0.560917 1.50019,1.193271 l 0.66146,0.529166 c 0.33866,0.264584 0.69056,0.529167 1.05833,0.820209 l 1.12448,0.865187 0.79375,0.595313 c 0.26458,0.201083 0.52916,0.407458 0.80698,0.611187 l 0.83343,0.627063 0.85461,0.635 0.43392,0.320146 c 0.29368,0.216958 0.58737,0.433916 0.889,0.648229 1.0451,0.764646 2.11666,1.539875 3.2385,2.315104 0.31485,0.22225 0.635,0.441854 0.95779,0.66675 1.76212,1.217083 3.5851,2.426229 5.41337,3.582458 q 0.74877,0.473604 1.50019,0.931333 l 0.49742,0.304271 0.99748,0.595313 0.50006,0.291041 c 0.66146,0.386292 1.32291,0.759355 1.97644,1.121834 1.14829,0.629708 2.2807,1.217083 3.38666,1.748896 l 0.47096,0.22225 q 0.70644,0.333375 1.39435,0.629708 1.15094,0.497417 2.23838,0.889 0.65352,0.232833 1.28587,0.428625 a 20.521083,20.521083 0 0 0 2.40507,0.595312 13.086292,13.086292 0 0 0 1.46579,0.179917 l 0.3466,0.01323 a 9.395354,9.395354 0 0 0 0.99219,-0.02117 6.4928749,6.4928749 0 0 0 1.20121,-0.214313 4.5587708,4.5587708 0 0 0 0.54504,-0.187854 4.1936458,4.1936458 0 0 0 1.5875,-1.105958 4.6222708,4.6222708 0 0 0 0.65881,-0.973667 46.169791,46.169791 0 0 0 3.63273,-9.609667 c 0.037,-0.140229 0.0688,-0.277812 0.10584,-0.415395 a 41.685104,41.685104 0 0 0 1.03187,-6.326188 c 0,0.351896 1.72508,1.772708 2.00025,2.076979 0.27517,0.304271 0.61912,0.690563 0.9234,1.039813 a 0.42862499,0.42862499 0 0 0 0.045,0.05027 l 0.0185,0.02117 c 0.037,0.04762 0.0741,0.0926 0.11377,0.134938 0.26458,0.312208 0.52916,0.621771 0.79375,0.936625 l 0.0794,0.09525 c 0.0714,0.08731 0.13758,0.177271 0.21167,0.264583 0.19579,0.246063 0.39423,0.492125 0.58473,0.740833 l 0.3175,0.410105 c 0.18256,0.24077 0.36248,0.484187 0.52916,0.727604 l 0.30692,0.415396 c 0.0556,0.08202 0.11377,0.15875 0.16933,0.238125 0.13759,0.185208 0.26459,0.378354 0.39952,0.568854 l 0.23019,0.330729 c 0.26459,0.378354 0.51594,0.762 0.76465,1.148291 l 0.0159,0.02117 0.0609,0.100542 q 0.37306,0.579437 0.73289,1.172104 v 0.01323 a 54.170791,54.170791 0 0 1 2.73315,5.095875 c 0.64823,1.383771 1.28058,2.780771 1.85208,4.198938 l 0.0317,0.07144 c 1.98438,4.722812 2.43417,5.979583 2.62467,11.821583 a 26.373666,26.373666 0 0 1 -0.67733,6.35 81.015416,81.015416 0 0 1 -3.10092,10.247318 c 0,0.0344 -0.0265,0.0741 -0.0397,0.10848 -0.0132,0.0344 -0.0291,0.0794 -0.0423,0.11906 -0.0132,0.0397 -0.0582,0.14287 -0.0847,0.21696 -0.17992,0.48418 -0.36512,0.97102 -0.55827,1.45256 l -0.14817,0.37306 q -0.33866,0.84138 -0.69585,1.66952 l -0.10583,0.23813 q -0.31486,0.80433 -0.68527,1.56633 c -0.0371,0.0741 -0.0688,0.14817 -0.10584,0.22225 -0.26458,0.58473 -0.55562,1.16681 -0.84666,1.74361 l -0.0159,0.0344 a 74.083332,74.083332 0 0 1 -6.95325,11.22892 c -1.00542,1.34144 -2.0611,2.64583 -3.15383,3.91848 a 0.82285416,0.82285416 0 0 1 -0.0609,0.0741 q -0.61912,0.71967 -1.25677,1.42346 l -0.2196,0.24077 q -0.51594,0.56356 -1.04511,1.11654 c -0.0979,0.10583 -0.19843,0.21167 -0.29897,0.31486 -0.39423,0.41275 -0.79375,0.81756 -1.19857,1.21972 l -0.12964,0.1323 c -0.0979,0.0979 -0.20109,0.19314 -0.29898,0.28839 l -0.71438,0.71173 -0.45773,0.43656 c -0.29368,0.26459 -0.58737,0.54505 -0.88635,0.81227 -0.0979,0.09 -0.1905,0.17992 -0.2884,0.26459 q -0.58737,0.52916 -1.18268,1.03981 l -0.36777,0.31221 c -0.30163,0.26458 -0.60325,0.51064 -0.91017,0.76464 -0.12436,0.10584 -0.26458,0.20638 -0.381,0.31221 -0.36248,0.29634 -0.72496,0.58738 -1.09273,0.87577 l -0.17463,0.13759 c -0.37835,0.29368 -0.75935,0.59002 -1.143,0.87841 l -0.16933,0.12436 -0.22754,0.16669 q -0.57944,0.43127 -1.16946,0.85195 l -0.18785,0.13494 c -0.42334,0.30163 -0.85461,0.59796 -1.28588,0.889 l -0.30691,0.20902 q -0.635,0.42863 -1.27794,0.84138 a 0.396875,0.396875 0 0 1 -0.0609,0.0397 c -0.4392,0.28311 -0.8837,0.56092 -1.32291,0.8308 l -0.33338,0.20637 c -0.44185,0.26458 -0.88371,0.52917 -1.32291,0.79375 l -0.22755,0.12965 c -0.39952,0.22754 -0.79375,0.45508 -1.2012,0.67733 l -0.30957,0.17198 c -0.44979,0.24606 -0.90487,0.48948 -1.35996,0.72496 -0.10054,0.0529 -0.20108,0.10583 -0.30427,0.1561 -0.41539,0.21696 -0.83079,0.42598 -1.25148,0.635 l -0.21431,0.10584 q -0.70114,0.3466 -1.41287,0.67204 l -0.32544,0.15346 q -0.72496,0.33337 -1.4605,0.65352 v 0 q -0.86254,0.37306 -1.73567,0.7276 c -0.22489,0.0926 -0.45243,0.17992 -0.67998,0.26458 -0.35189,0.14023 -0.70908,0.28046 -1.05833,0.4154 l -0.91546,0.34396 c -0.28839,0.10583 -0.57414,0.20902 -0.86254,0.30956 -0.3466,0.12435 -0.69321,0.24077 -1.04246,0.35983 l -0.69056,0.23019 c -0.39688,0.12965 -0.79375,0.26458 -1.20121,0.381 l -0.50271,0.15611 c -0.46037,0.14022 -0.92604,0.26458 -1.39171,0.40745 l -0.24077,0.0688 a 80.226957,80.226957 0 0 1 -17.99166,2.88131 l 1.05833,0.0926 c -0.35719,-0.0265 -0.71173,-0.0582 -1.05833,-0.0926 v 0 c -0.74877,0.037 -1.50284,0.0608 -2.25425,0.0714 -0.47361,0 -0.94457,0.0212 -1.41817,0.0212 -0.4736,0 -0.94985,0 -1.42346,-0.0185 h -0.45773 c -0.32543,0 -0.64823,-0.0159 -0.96837,-0.0291 -0.18256,0 -0.35983,-0.0159 -0.52917,-0.0238 l -0.91546,-0.0529 -0.56091,-0.0317 -0.88371,-0.0609 -0.33338,-0.0212 h -0.10054 c -1.41552,-0.10848 -2.8231,-0.26459 -4.21481,-0.43127 q -3.39725,-1.143 -6.67808,-2.49767 c -0.0979,-0.0344 -0.18786,-0.0714 -0.26459,-0.10054 A 104.35167,104.35167 0 0 1 120.5176,151.54815 101.6,101.6 0 0 1 102.81962,139.31382 97.792645,97.792645 0 0 1 88.360142,123.82247 93.202124,93.202124 0 0 1 77.723892,105.63501 90.080041,90.080041 0 0 1 71.503538,85.301776 q -0.246062,-1.381125 -0.455083,-2.772833 c -0.116417,-0.79375 -0.463021,-1.889125 -0.357188,-2.690812 a 69.209707,69.209707 0 0 0 -0.579437,7.178145 v 0.219605 a 89.249249,89.249249 0 0 0 7.209896,33.337499 c 14.94102,34.98057 51.392664,59.71117 94.022334,59.71117 55.94085,0 101.29044,-42.545 101.29044,-95.025107 0,-2.677583 -0.14553,-5.323416 -0.37571,-7.958666 z"
         id="path96"
         style="fill:#1aabc7;stroke-width:0.264583" />
      <path
         class="cls-2"
         d="m 244.66281,82.827895 c 0,-42.53177 -37.89892,-77.0096237 -84.64815,-77.0096237 -31.54627,0 -59.04442,15.7109577 -73.604436,38.9942907 0.02381,0.06086 0.04498,0.124355 0.06879,0.185209 0.04498,0.113771 0.08731,0.224896 0.134937,0.336021 0.04763,0.111125 0.07408,0.164041 0.111125,0.248708 0.03704,0.08467 0.07673,0.177271 0.119063,0.264583 0.04233,0.08731 0.08202,0.166688 0.124354,0.251354 0.04233,0.08467 0.08202,0.169334 0.127,0.264584 0.04498,0.09525 0.08996,0.166687 0.134937,0.248708 l 0.134938,0.248708 0.145521,0.246063 c 0.05027,0.07938 0.0979,0.164042 0.148166,0.243417 0.05027,0.07937 0.100542,0.161395 0.153459,0.24077 0.05292,0.07937 0.103187,0.161396 0.15875,0.240771 0.05556,0.07937 0.108479,0.15875 0.164041,0.235479 0.05556,0.07673 0.10848,0.15875 0.166688,0.238125 0.05821,0.07937 0.116417,0.156105 0.174625,0.232834 l 0.174625,0.232833 0.185208,0.227542 c 0.06085,0.07673 0.121709,0.153458 0.185209,0.227541 0.0635,0.07408 0.129645,0.150813 0.195791,0.227542 l 0.193146,0.22225 c 0.06879,0.07408 0.134938,0.148167 0.203729,0.219604 0.06879,0.07144 0.134938,0.148167 0.206375,0.219604 0.07144,0.07144 0.140229,0.145521 0.211667,0.216959 l 0.214312,0.214312 0.22225,0.214313 0.22225,0.209021 0.232834,0.20902 0.232833,0.206375 0.238125,0.206375 0.240771,0.198438 0.264583,0.201083 0.248708,0.198438 0.264584,0.195791 0.264583,0.193146 0.264583,0.193146 0.264584,0.187854 0.264583,0.185209 0.264583,0.185208 0.283105,0.185208 0.28575,0.177271 0.291041,0.179917 0.296334,0.174625 0.296333,0.174625 0.304271,0.171979 0.304271,0.169333 0.314854,0.166688 0.312208,0.166687 0.320146,0.161396 0.322792,0.161396 0.328083,0.156104 0.328083,0.15875 0.338667,0.153458 0.333375,0.150813 0.34925,0.150812 0.338667,0.145521 0.365125,0.148167 0.338666,0.137583 0.381005,0.148167 0.33602,0.129646 0.40216,0.148166 0.33073,0.121709 0.46567,0.161395 0.52917,0.177271 0.508,0.166688 0.33866,0.105833 c 0.14552,0.04498 0.29105,0.0926 0.43921,0.134938 l 0.3519,0.105833 0.43921,0.127 0.37041,0.103187 0.43127,0.119063 0.3863,0.100542 0.42862,0.111125 0.39952,0.0979 0.43127,0.105834 0.40481,0.09525 0.43657,0.0979 0.41275,0.08996 0.44185,0.09525 0.42069,0.08467 0.44714,0.08996 0.42598,0.07937 0.45509,0.08467 0.43127,0.07673 0.45773,0.07937 0.44185,0.07144 0.46302,0.07408 0.4445,0.06615 0.47361,0.06879 0.44714,0.06085 0.47625,0.0635 0.45509,0.05821 0.48418,0.05821 0.46038,0.05292 0.48948,0.05292 0.46302,0.04763 0.49741,0.04762 0.46567,0.04233 0.50536,0.04498 0.46831,0.03704 0.51329,0.03704 0.4736,0.0344 0.52917,0.03175 0.4789,0.0291 0.52916,0.02646 0.45244,0.0026 0.52917,0.02117 0.48418,0.01852 0.52917,0.01852 0.48419,0.01323 h 0.54769 0.48418 0.56092 0.4789 1.05833 0.59002 0.46831 0.61119 0.45508 l 0.65617,-0.01852 0.4154,-0.01323 0.71966,-0.0291 0.36513,-0.01323 1.09008,-0.05292 a 133.77333,133.77333 0 0 0 23.75958,-3.532188 l 3.65919,-0.93927 c 0,0 0.24077,0.203729 0.68792,0.574145 l 0.29104,0.240771 0.72496,0.595313 0.66146,0.529166 0.49477,0.396875 0.52916,0.431271 c 0.46038,0.367771 0.96309,0.767292 1.50019,1.190625 l 0.66146,0.529167 1.05833,0.820208 1.12184,0.865188 0.78052,0.595312 0.80962,0.611188 0.83344,0.627062 0.8546,0.635 c 0.14552,0.105833 0.2884,0.214313 0.43657,0.320146 0.29104,0.216958 0.58737,0.433917 0.88635,0.650875 1.0451,0.762 2.11667,1.537229 3.2385,2.312458 0.31485,0.22225 0.635,0.4445 0.95515,0.664104 1.76477,1.219729 3.5851,2.431521 5.41602,3.585104 0.50006,0.314855 0.99748,0.627063 1.49754,0.931334 l 0.50006,0.304271 0.99748,0.595312 0.49742,0.291042 c 0.6641,0.386291 1.32291,0.759354 1.97908,1.121833 1.14829,0.629708 2.28071,1.217083 3.38667,1.74625 l 0.47096,0.224896 q 0.70643,0.333375 1.39435,0.629708 c 0.76465,0.330729 1.51342,0.627063 2.24102,0.889 q 0.65088,0.232834 1.28323,0.428625 a 19.976041,19.976041 0 0 0 2.40506,0.592667 13.11275,13.11275 0 0 0 1.46579,0.182562 l 0.34661,0.01588 a 8.1359374,8.1359374 0 0 0 0.99219,-0.02646 6.2838541,6.2838541 0 0 0 1.2012,-0.211667 5.0720624,5.0720624 0 0 0 0.54505,-0.185208 4.2333333,4.2333333 0 0 0 1.5875,-1.108604 4.5137916,4.5137916 0 0 0 0.65616,-0.973667 46.11952,46.11952 0 0 0 3.63538,-9.609666 c 0.037,-0.140229 0.0714,-0.277813 0.10318,-0.418042 a 41.010416,41.010416 0 0 0 1.03188,-6.331479 c -0.0265,0.336021 1.72508,1.778 2.00289,2.084917 0.27782,0.306916 0.61913,0.690562 0.92075,1.039812 l 0.0476,0.05027 0.0159,0.02117 0.11642,0.137583 c 0.26458,0.309562 0.52917,0.619125 0.79375,0.933979 l 0.0794,0.09525 c 0.0714,0.08731 0.14023,0.177271 0.20902,0.264583 0.19843,0.246063 0.39423,0.492125 0.58737,0.74348 l 0.3175,0.410104 c 0.18256,0.240771 0.36513,0.481541 0.52917,0.724958 0.10319,0.137583 0.20373,0.277813 0.30427,0.415396 l 0.17462,0.238125 0.39688,0.568854 0.23019,0.330729 c 0.26458,0.378354 0.51593,0.762 0.76464,1.148292 l 0.0159,0.02117 0.0609,0.0979 q 0.37306,0.582084 0.7329,1.17475 v 0.01587 a 53.890333,53.890333 0 0 1 2.73844,5.095875 c 0.64558,1.381125 1.27793,2.778125 1.85208,4.198938 l 0.0291,0.07144 c 1.98438,4.720167 2.43682,5.974292 2.62732,11.818938 a 26.373666,26.373666 0 0 1 -0.67734,6.349999 81.277353,81.277353 0 0 1 -3.10091,10.247311 l -0.0397,0.10848 c -0.0159,0.0397 -0.0291,0.0794 -0.0423,0.11906 -0.0132,0.0397 -0.0556,0.14552 -0.0847,0.21696 q -0.26459,0.73025 -0.55827,1.45256 c -0.0476,0.12436 -0.0979,0.24871 -0.14817,0.37307 -0.2249,0.56091 -0.45773,1.11654 -0.69585,1.67216 l -0.10319,0.23548 q -0.34131,0.77788 -0.70115,1.55046 l -0.10318,0.22225 c -0.26459,0.58737 -0.55563,1.16681 -0.84403,1.74625 a 0.1984375,0.1984375 0 0 0 -0.0185,0.0318 74.083332,74.083332 0 0 1 -6.93208,11.23421 q -1.50812,2.01612 -3.15119,3.92112 l -0.0609,0.0714 c -0.4154,0.4789 -0.83344,0.9525 -1.25942,1.42346 -0.0741,0.0794 -0.14816,0.15875 -0.2196,0.24077 -0.34396,0.37571 -0.69321,0.74877 -1.04246,1.11654 l -0.30162,0.3175 q -0.59267,0.61383 -1.19592,1.21444 l -0.13229,0.13494 c -0.0979,0.0979 -0.20109,0.19314 -0.29898,0.28839 -0.24077,0.23548 -0.48419,0.46831 -0.72761,0.70115 l -0.46037,0.43656 c -0.29104,0.26458 -0.58738,0.54504 -0.88371,0.81492 l -0.29104,0.26458 c -0.38894,0.3519 -0.79375,0.69585 -1.18004,1.03981 l -0.36777,0.31221 c -0.30163,0.26458 -0.60325,0.51065 -0.91017,0.76465 l -0.39158,0.32279 q -0.52917,0.4445 -1.09273,0.87577 l -0.17463,0.13758 q -0.56621,0.4445 -1.14564,0.87842 l -0.16934,0.12435 -0.22225,0.16669 c -0.38893,0.2884 -0.77787,0.5715 -1.1721,0.85196 l -0.18786,0.13494 q -0.64029,0.45243 -1.28587,0.889 c -0.10054,0.0714 -0.20373,0.14023 -0.30692,0.20902 -0.42333,0.2831 -0.84931,0.56621 -1.27793,0.84137 l -0.0609,0.0397 c -0.43921,0.2831 -0.88371,0.55827 -1.32292,0.83344 -0.11112,0.0688 -0.22225,0.13758 -0.33602,0.20373 q -0.65881,0.39952 -1.32291,0.79375 l -0.2249,0.12964 q -0.59796,0.34661 -1.20121,0.67734 l -0.30956,0.17198 c -0.44979,0.24606 -0.90487,0.48947 -1.35996,0.7276 l -0.30162,0.1561 c -0.4154,0.21432 -0.83344,0.42334 -1.25148,0.63236 l -0.21696,0.10583 q -0.70115,0.34661 -1.41288,0.67469 l -0.32543,0.15081 c -0.48419,0.22225 -0.97102,0.44186 -1.45786,0.65352 v 0 q -0.86254,0.37306 -1.73566,0.72761 c -0.2249,0.0926 -0.45244,0.17991 -0.67734,0.26458 -0.35718,0.14287 -0.71173,0.2831 -1.05833,0.41804 l -0.89958,0.33867 c -0.28575,0.10319 -0.5715,0.20902 -0.8599,0.30956 -0.34396,0.12171 -0.69321,0.24077 -1.03981,0.35983 l -0.69321,0.23019 c -0.39952,0.12965 -0.79375,0.26458 -1.20121,0.381 l -0.50271,0.15611 q -0.69321,0.20902 -1.39171,0.40745 l -0.24077,0.0662 a 80.09202,80.09202 0 0 1 -18.00489,2.88396 q 4.25979,0.39423 8.62806,0.39687 c 46.74923,-0.008 84.64815,-34.48579 84.64815,-77.020204 z"
         id="path98"
         style="fill:url(#radialGradient1462);stroke-width:0.264583" />
      <path
         class="cls-1"
         d="m 86.407578,44.817854 c 0.02117,0.06085 0.04762,0.119063 0.07144,0.179917 -0.02381,-0.06085 -0.04498,-0.124354 -0.06879,-0.185209 z"
         id="path100"
         style="fill:#1aabc7;stroke-width:0.264583" />
      <path
         class="cls-3"
         d="m 86.407578,44.817854 c 0.02117,0.06085 0.04762,0.119063 0.07144,0.179917 -0.02381,-0.06085 -0.04498,-0.124354 -0.06879,-0.185209 z"
         id="path102"
         style="fill:url(#radialGradient1464);stroke-width:0.264583" />
      <path
         class="cls-1"
         d="m 152.45551,159.53589 c -0.35718,-0.0264 -0.71172,-0.0582 -1.05833,-0.0926 h 0.0185 z"
         id="path104"
         style="fill:#1aabc7;stroke-width:0.264583" />
      <path
         class="cls-1"
         d="m 152.45551,159.53589 c -0.35718,-0.0264 -0.71172,-0.0582 -1.05833,-0.0926 h 0.0185 z"
         id="path106"
         style="fill:#1aabc7;stroke-width:0.264583" />
      <path
         class="cls-1"
         d="m 86.407578,44.817854 c 0.02117,0.06085 0.04762,0.119063 0.07144,0.179917 -0.02381,-0.06085 -0.04498,-0.124354 -0.06879,-0.185209 z"
         id="path108"
         style="fill:#1aabc7;stroke-width:0.264583" />
      <path
         class="cls-3"
         d="m 86.407578,44.817854 c 0.02117,0.06085 0.04762,0.119063 0.07144,0.179917 -0.02381,-0.06085 -0.04498,-0.124354 -0.06879,-0.185209 z"
         id="path110"
         style="fill:url(#%E6%9C%AA%E5%91%BD%E5%90%8D%E7%9A%84%E6%B8%90%E5%8F%98_819-2);stroke-width:0.264583" />
    </g>
  </g>
</svg>
